HIERARCHY
ROOT hip
{
	OFFSET 0.000000 0.000000 0.000000 
	CHANNELS 6 Xposition Yposition Zposition Xrotation Zrotation Yrotation
	JOINT abdomen
	{
		OFFSET 0.000000 3.402643 0.000000 
		CHANNELS 3 Xrotation Zrotation Yrotation
		JOINT chest
		{
			OFFSET 0.000000 8.438565 -0.680529 
			CHANNELS 3 Xrotation Zrotation Yrotation
			JOINT neck
			{
				OFFSET 0.000000 10.207942 -0.272212 
				CHANNELS 3 Xrotation Zrotation Yrotation
				JOINT head
				{
					OFFSET 0.000000 3.130431 0.000000 
					CHANNELS 3 Xrotation Zrotation Yrotation
					End Site
					{
						OFFSET 0.000000 3.130435 0.000000 
					}
				}
			}
			JOINT lCollar
			{
				OFFSET 3.470700 6.669187 -0.816635 
				CHANNELS 3 Yrotation Zrotation Xrotation
				JOINT lShldr
				{
					OFFSET 3.198488 0.000000 0.000000 
					CHANNELS 3 Zrotation Yrotation Xrotation
					JOINT lForeArm
					{
						OFFSET 10.139888 0.000000 0.000000 
						CHANNELS 3 Yrotation Zrotation Xrotation
						JOINT lHand
						{
							OFFSET 8.370511 0.000000 0.000000 
							CHANNELS 3 Zrotation Yrotation Xrotation
							End Site
							{
								OFFSET 4.083176 0.000000 0.000000 
							}
						}
					}
				}
			}
			JOINT rCollar
			{
				OFFSET -3.470700 6.669187 -0.816635 
				CHANNELS 3 Yrotation Zrotation Xrotation
				JOINT rShldr
				{
					OFFSET -3.198488 0.000000 0.000000 
					CHANNELS 3 Zrotation Yrotation Xrotation
					JOINT rForeArm
					{
						OFFSET -10.139888 0.000000 0.000000 
						CHANNELS 3 Yrotation Zrotation Xrotation
						JOINT rHand
						{
							OFFSET -8.370511 0.000000 0.000000 
							CHANNELS 3 Zrotation Yrotation Xrotation
							End Site
							{
								OFFSET -4.083176 0.000000 0.000000 
							}
						}
					}
				}
			}
		}
	}
	JOINT lThigh
	{
		OFFSET 5.308129 -1.633274 1.361059 
		CHANNELS 3 Xrotation Zrotation Yrotation
		JOINT lShin
		{
			OFFSET -2.041588 -20.007561 0.000000 
			CHANNELS 3 Xrotation Zrotation Yrotation
			JOINT lFoot
			{
				OFFSET 0.000000 -19.190928 -1.224953 
				CHANNELS 3 Xrotation Yrotation Zrotation
				End Site
				{
					OFFSET 0.000000 -2.449906 4.627600 
				}
			}
		}
	}
	JOINT rThigh
	{
		OFFSET -5.308129 -1.633274 1.361059 
		CHANNELS 3 Xrotation Zrotation Yrotation
		JOINT rShin
		{
			OFFSET 2.041588 -20.007561 0.000000 
			CHANNELS 3 Xrotation Zrotation Yrotation
			JOINT rFoot
			{
				OFFSET 0.000000 -19.190928 -1.224953 
				CHANNELS 3 Xrotation Yrotation Zrotation
				End Site
				{
					OFFSET 0.000000 -2.449906 4.627600 
				}
			}
		}
	}
}
MOTION
Frames: 14
Frame Time: 0.011111
2.265095 42.691929 -35.948620 19.211357 9.042740 3.869143 48.387558 -3.089986 -4.205858 -29.337500 -0.151282 -0.528127 -21.245604 -6.835272 -0.684608 -8.585692 11.834999 -5.584374 2.424333 -4.683778 1.783845 -69.723358 -43.864384 29.841209 -48.921970 7.443209 7.723213 8.524705 12.647240 -37.190811 -2.738486 -1.140572 2.095526 70.276176 38.847973 22.682873 48.476746 -7.344896 7.558124 -8.534408 -12.637552 43.460796 -46.344666 -3.017855 2.847396 79.144440 -0.330914 -9.405021 -36.700733 -8.045063 -6.379800 -59.014591 -16.298431 11.585132 88.095230 -0.927755 9.682558 -39.874115 2.403509 1.692701 
2.287048 42.520512 -35.694504 18.925453 9.252904 3.990612 48.011620 -3.200260 -4.336677 -29.278944 -0.106033 -0.555971 -21.616941 -6.784413 -0.681491 -8.068087 11.560457 -5.521005 2.424333 -4.683778 1.783845 -70.024422 -45.422413 31.293734 -50.601311 7.833056 8.390664 8.524705 12.647240 -35.638073 -2.738486 -1.140572 2.095526 70.369270 40.164940 23.138988 49.851734 -7.678260 8.108236 -8.534408 -12.637552 44.476421 -45.795200 -3.388957 2.810938 79.669395 -0.253212 -9.424968 -37.106003 -8.045619 -6.390787 -58.988091 -16.757179 11.526847 89.027466 -1.083216 9.690818 -39.579788 2.400142 1.715508 
2.281936 42.354809 -35.431965 18.509615 9.092868 4.057894 47.682617 -3.085825 -4.123907 -29.317968 -0.159021 -0.516865 -21.892002 -6.780453 -0.653611 -7.567712 11.482340 -5.451667 2.424333 -4.683778 1.783845 -70.287132 -46.932217 32.580418 -52.634838 8.253274 9.228003 8.524705 12.647240 -34.104870 -2.738486 -1.140572 2.095526 70.614929 41.459435 22.932665 51.439754 -8.019747 8.742746 -8.534408 -12.637552 44.320171 -45.243885 -3.349369 2.533849 80.232239 -0.165713 -9.467869 -37.547157 -8.073886 -6.405540 -58.374928 -16.825773 11.148553 89.784561 -1.191378 9.723236 -39.433697 2.201056 1.589152 
2.227805 42.196926 -35.154091 17.871794 8.007798 3.762288 47.350880 -2.441195 -3.054064 -29.220245 -0.347924 -0.355100 -22.343370 -6.762844 -0.616137 -7.056157 11.461473 -5.367815 2.424333 -4.683778 1.783845 -70.513916 -48.462162 33.779358 -55.080853 8.682376 10.253540 8.524705 12.647240 -32.337296 -2.738486 -1.140572 2.095526 70.764740 42.833942 22.984697 53.120441 -8.352973 9.436104 -8.534408 -12.637552 44.320171 -44.862293 -2.080216 1.916397 80.952507 -0.067376 -9.471730 -37.971699 -8.304916 -6.588744 -56.990513 -15.634584 10.230974 90.309814 -1.259419 9.722277 -39.477264 1.925857 1.367315 
2.201040 42.061600 -34.880428 17.484192 7.743377 3.781364 46.839886 -2.359739 -2.787196 -29.034744 -0.338523 -0.308098 -22.664520 -6.694299 -0.629137 -6.811029 11.253728 -5.359874 2.424333 -4.683778 1.783845 -70.670578 -50.159340 35.102322 -57.730583 9.048164 11.401791 8.524705 12.647240 -30.462292 -2.738486 -1.140572 2.095526 70.727325 44.280506 23.474905 54.798168 -8.649095 10.150829 -8.534408 -12.637552 45.042828 -44.326889 -1.884693 1.596510 81.506317 0.008772 -9.501015 -38.361156 -8.427556 -6.679068 -56.286411 -15.439218 9.948987 90.795349 -1.337183 9.727899 -39.482525 2.015863 1.444546 
2.175177 41.941910 -34.600445 17.070221 7.552150 3.903462 46.399105 -2.314616 -2.576692 -29.025152 -0.206746 -0.291077 -22.683989 -6.689116 -0.639031 -6.635825 10.925094 -5.346181 2.424333 -4.683778 1.783845 -70.759544 -52.043289 36.647541 -60.336205 9.295057 12.544579 8.524705 12.647240 -28.850965 -2.738486 -1.140572 2.095526 70.491791 45.535538 23.983126 56.819248 -8.940922 11.015326 -8.534408 -12.637552 45.853374 -43.717308 -1.855993 1.191723 81.953171 0.068222 -9.527142 -38.686977 -8.516557 -6.745834 -55.448849 -15.350457 9.690143 91.154861 -1.382965 9.738646 -39.468639 2.099171 1.503013 
2.153825 41.868233 -34.300617 16.512148 7.437718 3.999364 46.145668 -2.312142 -2.387545 -29.093666 -0.120147 -0.246364 -22.907944 -6.642293 -0.668527 -6.238022 10.531194 -5.355587 2.424333 -4.683778 1.783845 -70.576347 -54.039230 38.304745 -63.118912 9.440028 13.817356 8.524705 12.647240 -27.571669 -2.738486 -1.140572 2.095526 70.153885 46.743641 24.365114 59.145847 -9.201377 12.024972 -8.534408 -12.637552 46.263531 -42.719585 -1.904749 0.850700 82.118828 0.098888 -9.512621 -38.971901 -8.334810 -6.603038 -54.312572 -15.282839 9.559202 91.320274 -1.414966 9.724766 -39.423687 2.205045 1.591879 
2.120144 41.840260 -33.992973 15.914978 7.330050 4.123668 45.902302 -2.325538 -2.292053 -29.064459 -0.068589 -0.235448 -23.315935 -6.541813 -0.716306 -5.826610 10.273873 -5.396026 2.424333 -4.683778 1.783845 -70.066994 -56.284718 39.784317 -65.961182 9.436553 15.133285 8.524705 12.647240 -26.516979 -2.738486 -1.140572 2.095526 69.835587 48.156452 24.674561 61.520771 -9.377591 13.090043 -8.534408 -12.637552 45.951027 -41.574055 -1.952979 0.513417 82.196541 0.097617 -9.527980 -39.274345 -8.212913 -6.488089 -52.944695 -15.194899 9.413974 91.349182 -1.424639 9.726149 -39.505516 2.322972 1.671361 
2.156231 41.975288 -33.443840 14.470314 7.202714 2.780913 46.100060 -2.930761 -1.421212 -28.722418 -0.232811 0.078672 -24.216606 -6.475446 -0.714776 -4.891562 10.131104 -5.386263 2.424333 -4.683778 1.783845 -69.320518 -58.699924 40.927052 -68.643883 9.289907 16.421057 8.524705 12.647240 -25.931042 -2.738486 -1.140572 2.095526 69.291595 49.973919 25.340355 63.334526 -9.451921 13.925090 -8.534408 -12.637552 46.693214 -38.709282 -1.250352 1.041221 81.817711 0.039261 -9.514202 -40.043095 -8.220445 -6.491951 -50.030731 -14.188807 10.021037 90.776573 -1.317795 9.726833 -39.780224 2.336636 1.631809 
2.017595 41.904915 -33.347309 15.019473 6.907904 4.384968 45.028294 -2.199408 -2.153449 -29.064791 0.098335 -0.244325 -24.807781 -6.506472 -0.713838 -4.160996 10.005128 -5.424457 2.424333 -4.683778 1.783845 -68.391724 -61.146954 41.786728 -71.145973 9.007478 17.647705 8.524705 12.647240 -25.989637 -2.738486 -1.140572 2.095526 68.599403 51.862221 25.701124 65.240959 -9.459102 14.804650 -8.534408 -12.637552 45.794781 -39.651424 -1.640516 -0.131219 81.904472 0.047495 -9.541359 -39.367695 -8.396092 -6.620327 -50.159515 -14.755130 8.896543 90.824989 -1.327446 9.729332 -39.489986 2.253812 1.611575 
1.984515 42.032730 -32.937710 14.139585 6.679954 4.004005 44.963146 -2.255685 -1.916583 -29.045441 0.169380 -0.177198 -25.110184 -6.469429 -0.656168 -3.936673 9.879195 -5.299152 2.424333 -4.683778 1.783845 -67.120422 -63.696239 42.058643 -73.451263 8.609986 18.822405 8.524705 12.647240 -26.448618 -2.738486 -1.140572 2.095526 67.789108 54.025780 26.019468 67.070175 -9.404560 15.679028 -8.534408 -12.637552 44.954937 -37.731380 -1.171844 -0.095652 81.380295 -0.030070 -9.506083 -39.554447 -8.607805 -6.788591 -47.943638 -14.120141 8.878086 90.154121 -1.239949 9.723764 -39.362255 2.252792 1.630737 
1.941510 42.198132 -32.527218 13.485436 6.445508 3.750746 44.661686 -2.269705 -1.806710 -29.016621 0.347674 -0.177864 -25.176065 -6.605914 -0.453816 -4.231017 10.141959 -5.035517 2.424333 -4.683778 1.783845 -65.610809 -66.355400 41.656860 -75.530304 8.113271 19.906944 8.524705 12.647240 -26.917372 -2.738486 -1.140572 2.095526 66.713791 56.398418 26.255774 68.847313 -9.277967 16.521215 -8.534408 -12.637552 44.134628 -35.997849 -0.693729 0.040087 80.690247 -0.106268 -9.458243 -39.731503 -8.434272 -6.685914 -45.935234 -13.554153 8.829382 89.406387 -1.141646 9.693001 -39.348240 2.314241 1.706990 
1.889183 42.394505 -32.103188 12.908972 6.162087 3.552851 44.277779 -2.172331 -1.796978 -28.997677 0.530635 -0.208958 -25.359423 -6.733490 -0.217331 -4.307868 10.492045 -4.677434 2.424333 -4.683778 1.783845 -63.626293 -69.058372 40.785076 -77.393150 7.542723 20.936224 8.524705 12.647240 -26.975964 -2.738486 -1.140572 2.095526 65.512245 58.879658 26.716595 70.657295 -9.081038 17.414663 -8.534408 -12.637552 43.812359 -34.254234 -0.098005 0.240900 79.708740 -0.243369 -9.410014 -39.716507 -8.274094 -6.545751 -43.885445 -12.958756 8.658345 88.414879 -0.995693 9.693412 -39.280106 2.133000 1.562429 
1.837157 42.629375 -31.641569 12.228852 5.973902 3.201037 43.958939 -2.260385 -1.846284 -28.978840 0.716896 -0.220671 -25.638403 -6.639321 -0.047072 -4.118377 10.535591 -4.317958 2.424333 -4.683778 1.783845 -61.091949 -71.696861 39.357708 -79.150536 6.866871 21.950760 8.524705 12.647240 -27.073622 -2.738486 -1.140572 2.095526 64.395981 61.329292 26.711983 72.491997 -8.797203 18.336542 -8.534408 -12.637552 42.493999 -32.171074 0.536606 0.671180 78.522568 -0.408415 -9.358434 -39.564953 -8.501024 -6.734485 -41.594276 -12.411044 8.627745 87.210663 -0.829342 9.648089 -39.153564 1.914797 1.421412 
